<svg xmlns="http://www.w3.org/2000/svg" version="1.1" xmlns:xlink="http://www.w3.org/1999/xlink" xmlns:svgjs="http://svgjs.dev/svgjs" width="1440" height="560" preserveAspectRatio="none" viewBox="0 0 1440 560"><g mask="url(&quot;#SvgjsMask1000&quot;)" fill="none"><rect width="1440" height="560" x="0" y="0" fill="#0e2a47"></rect><path d="M 0,114 C 57.6,131.2 172.8,221.8 288,200 C 403.2,178.2 460.8,10.6 576,5 C 691.2,-0.6 748.8,154.8 864,172 C 979.2,189.2 1036.8,71.4 1152,91 C 1267.2,110.6 1382.4,234.2 1440,270L1440 560L0 560z" fill="#184a7e"></path><path d="M 0,553 C 96,503.6 288,317.4 480,306 C 672,294.6 768,486.6 960,496 C 1152,505.4 1344,381.6 1440,353L1440 560L0 560z" fill="#2264ab"></path></g><defs><mask id="SvgjsMask1000"><rect width="1440" height="560" fill="#ffffff"></rect></mask></defs></svg>